<svg width="565" height="525" viewBox="0 0 565 525" fill="none" xmlns="http://www.w3.org/2000/svg">
<g filter="url(#filter0_df_864_13756)">
<path d="M301.99 481.312L41.7042 119.57L121.036 39.312L523.704 294.996L430.87 423.102L301.99 481.312Z" fill="url(#paint0_linear_864_13756)" fill-opacity="0.69" shape-rendering="crispEdges"/>
</g>
<g filter="url(#filter1_d_864_13756)">
<path d="M38.7042 58.2337C38.7042 46.1267 48.5189 36.312 60.6259 36.312H110.783C122.89 36.312 132.704 46.1267 132.704 58.2337V110.39C132.704 122.497 122.89 132.312 110.783 132.312H60.6259C48.5189 132.312 38.7042 122.497 38.7042 110.39V58.2337Z" fill="#7BCEF2" shape-rendering="crispEdges"/>
<path d="M61.0293 56.312H110.575C114.296 56.312 117.233 59.312 117.233 63.112V105.712C117.233 109.512 114.296 112.512 110.575 112.512H61.0293C57.3085 112.312 54.371 109.312 54.371 105.512V63.112C54.371 59.312 57.3085 56.312 61.0293 56.312Z" fill="#2A5162"/>
<path d="M110.379 114.312H61.0293C56.3293 114.312 52.4126 110.312 52.4126 105.512V63.112C52.4126 58.312 56.3293 54.312 61.0293 54.312H110.575C115.079 54.312 118.996 58.312 118.996 63.112V105.712C118.996 110.312 115.079 114.312 110.379 114.312ZM61.0293 58.312C58.4834 58.312 56.3293 60.512 56.3293 63.112V105.712C56.3293 108.312 58.4834 110.512 61.0293 110.512H110.575C113.121 110.512 115.275 108.312 115.275 105.712V63.112C115.275 60.512 113.121 58.312 110.575 58.312H61.0293Z" fill="#7BCEF2"/>
<path d="M69.8417 103.312H62.2042L76.1084 65.312H83.7459L69.8417 103.312Z" fill="#7BCEF2"/>
<path d="M91.5793 65.312H105.288C107.442 65.312 109.204 67.112 109.204 69.312C109.204 71.512 107.442 73.312 105.288 73.312H91.5793C89.4251 73.312 87.6626 71.512 87.6626 69.312C87.6626 67.112 89.4251 65.312 91.5793 65.312Z" fill="#7BCEF2"/>
<path d="M91.5793 80.312H105.288C107.442 80.312 109.204 82.112 109.204 84.312C109.204 86.512 107.442 88.312 105.288 88.312H91.5793C89.4251 88.312 87.6626 86.512 87.6626 84.312C87.6626 82.112 89.4251 80.312 91.5793 80.312Z" fill="#7BCEF2"/>
<path d="M91.5793 95.312H105.288C107.442 95.312 109.204 97.112 109.204 99.312C109.204 101.512 107.442 103.312 105.288 103.312H91.5793C89.4251 103.312 87.6626 101.512 87.6626 99.312C87.6626 97.112 89.4251 95.312 91.5793 95.312Z" fill="#7BCEF2"/>
</g>
<g filter="url(#filter2_i_864_13756)">
<path d="M400.825 194.071L400.678 247.84L367.5 228.683L367.657 174.915L400.825 194.071Z" fill="#262626"/>
</g>
<path d="M400.825 194.071L400.678 247.84L367.5 228.683L367.657 174.915L400.825 194.071Z" stroke="#8BBFFF" stroke-width="1.05293" stroke-linejoin="round"/>
<g filter="url(#filter3_i_864_13756)">
<path d="M400.827 194.071L431.472 176.26L431.315 230.028L400.68 247.84L400.827 194.071Z" fill="#171717" stroke="#8BBFFF" stroke-width="1.05293" stroke-linejoin="round"/>
<path d="M400.492 248.164L400.649 193.964L400.737 193.914L431.657 175.946L431.5 230.146L431.412 230.195L400.492 248.164ZM401.012 194.18L400.865 247.526L431.137 229.93L431.284 176.584L401.012 194.18Z" fill="#171717" stroke="#8BBFFF" stroke-width="1.05293" stroke-linejoin="round"/>
</g>
<g filter="url(#filter4_i_864_13756)">
<path d="M367.655 174.915L398.291 157.113L431.469 176.26L400.824 194.071L367.655 174.915Z" fill="#262626"/>
</g>
<path d="M367.655 174.915L398.291 157.113L431.469 176.26L400.824 194.071L367.655 174.915Z" stroke="#8BBFFF" stroke-width="1.05293" stroke-linejoin="round"/>
<mask id="mask0_864_13756" style="mask-type:alpha" maskUnits="userSpaceOnUse" x="88" y="79" width="415" height="403">
<path d="M502.357 281.473L470.327 381.2C434.09 438.934 371.175 478.223 298.864 481.782L88.7094 186.647C107.134 141.012 140.769 103.148 183.332 79.3398L502.357 281.473Z" fill="url(#paint1_linear_864_13756)"/>
</mask>
<g mask="url(#mask0_864_13756)">
<circle cx="287.391" cy="275.249" r="186.388" fill="url(#paint2_linear_864_13756)" fill-opacity="0.24" stroke="#8BBFFF" stroke-width="2"/>
<path d="M287.391 88.8608C324.529 88.8608 358.241 109.609 382.704 143.333C407.168 177.055 422.328 223.692 422.328 275.25C422.328 326.807 407.167 373.444 382.704 407.166C358.241 440.889 324.529 461.637 287.391 461.637C250.253 461.637 216.542 440.889 192.078 407.166C167.615 373.444 152.454 326.807 152.453 275.25C152.453 223.692 167.615 177.055 192.078 143.333C216.542 109.61 250.253 88.8609 287.391 88.8608Z" fill="url(#paint3_linear_864_13756)" fill-opacity="0.24" stroke="#8BBFFF" stroke-width="2"/>
<path d="M287.391 88.8608C295.877 88.8608 304.108 93.8532 311.733 103.218C319.351 112.575 326.256 126.176 332.074 143.071C343.706 176.851 350.918 223.584 350.918 275.25C350.918 326.915 343.706 373.647 332.074 407.427C326.256 424.322 319.351 437.923 311.733 447.28C304.108 456.645 295.877 461.637 287.391 461.637C278.905 461.637 270.674 456.645 263.049 447.28C255.431 437.923 248.526 424.322 242.708 407.427C231.076 373.647 223.864 326.915 223.864 275.25C223.864 223.584 231.076 176.851 242.708 143.071C248.526 126.176 255.431 112.575 263.049 103.218C270.674 93.8532 278.905 88.8608 287.391 88.8608Z" fill="url(#paint4_linear_864_13756)" fill-opacity="0.24" stroke="#8BBFFF" stroke-width="2"/>
<path d="M473.779 275.249C473.779 312.387 453.031 346.099 419.308 370.562C385.586 395.026 338.949 410.187 287.391 410.187C235.833 410.186 189.197 395.025 155.475 370.562C121.751 346.099 101.003 312.387 101.003 275.249C101.003 238.111 121.752 204.4 155.475 179.937C189.197 155.473 235.833 140.312 287.391 140.312C338.949 140.312 385.586 155.473 419.308 179.937C453.031 204.4 473.779 238.111 473.779 275.249Z" fill="url(#paint5_linear_864_13756)" fill-opacity="0.24" stroke="#8BBFFF" stroke-width="2"/>
<path d="M473.779 269.023C473.779 277.509 468.787 285.741 459.422 293.365C450.065 300.983 436.464 307.888 419.569 313.706C385.789 325.338 339.056 332.551 287.391 332.551C235.725 332.551 188.993 325.338 155.213 313.706C138.318 307.888 124.717 300.983 115.36 293.365C105.995 285.741 101.003 277.509 101.003 269.023C101.003 260.538 105.995 252.306 115.36 244.682C124.717 237.064 138.318 230.159 155.213 224.341C188.993 212.708 235.725 205.496 287.391 205.496C339.056 205.496 385.789 212.708 419.569 224.341C436.464 230.159 450.065 237.064 459.422 244.682C468.787 252.306 473.779 260.538 473.779 269.023Z" fill="url(#paint6_linear_864_13756)" fill-opacity="0.24" stroke="#8BBFFF" stroke-width="2"/>
<path d="M288.603 87.8647C388.357 88.4968 469.617 167.074 474.542 265.753C474.699 266.836 474.779 267.926 474.779 269.023L474.775 269.44C474.768 269.834 474.75 270.227 474.723 270.619C474.76 272.158 474.779 273.701 474.779 275.25L474.775 276.461C474.123 379.395 390.479 462.637 287.391 462.637L287.391 462.636V462.637L287.39 462.636L287.252 462.635L286.18 462.633C183.649 461.984 100.656 378.992 100.007 276.461L100.003 275.25C100.003 273.701 100.023 272.157 100.06 270.618C100.023 270.088 100.003 269.556 100.003 269.023L100.007 268.606C100.024 267.661 100.105 266.722 100.239 265.787C105.168 166.692 187.073 87.8608 287.391 87.8608L288.603 87.8647ZM327.618 408.044C314.659 410.101 301.2 411.186 287.391 411.186L284.969 411.175C272.007 411.056 259.363 409.981 247.163 408.045C252.748 423.789 259.221 436.241 266.152 444.754C273.361 453.609 280.535 457.599 287.298 457.635C287.328 457.635 287.358 457.636 287.388 457.636H287.391C287.423 457.636 287.456 457.635 287.488 457.635C294.25 457.597 301.423 453.608 308.631 444.754C315.562 436.241 322.033 423.788 327.618 408.044ZM185.231 389.227C188.381 394.691 191.747 399.898 195.315 404.817C215.379 432.475 241.563 450.894 270.456 456.115C259.336 447.355 249.409 430.178 241.536 407.084C221.252 403.383 202.281 397.286 185.231 389.227ZM389.553 389.223C372.502 397.282 353.532 403.382 333.248 407.083C325.374 430.179 315.445 447.355 304.324 456.115C333.218 450.894 359.401 432.475 379.466 404.817C383.035 399.896 386.403 394.689 389.553 389.223ZM110.686 320.595C127.137 384.888 177.75 435.503 242.043 451.954C215.868 439.189 193.375 415.689 177.349 385.289C146.95 369.263 123.451 346.77 110.686 320.595ZM464.093 320.604C451.327 346.776 427.828 369.266 397.431 385.29C381.406 415.688 358.914 439.188 332.741 451.953C397.03 435.502 447.64 384.892 464.093 320.604ZM344.034 330.548C326.164 332.497 307.134 333.55 287.391 333.55L284.969 333.545C266.091 333.463 247.886 332.418 230.747 330.548C233.687 357.942 238.749 382.528 245.335 402.677C258.825 404.969 272.904 406.186 287.391 406.186C301.877 406.186 315.956 404.969 329.446 402.677C336.032 382.528 341.094 357.942 344.034 330.548ZM414.992 316.278C396.216 322.293 373.85 326.996 349.123 329.965C346.29 356.955 341.415 381.359 335.022 401.663C356.424 397.506 376.242 390.622 393.725 381.583C403.687 362.315 411.032 340.212 414.992 316.278ZM159.789 316.278C163.749 340.212 171.094 362.315 181.056 381.583C198.539 390.622 218.356 397.505 239.758 401.662C233.365 381.358 228.491 356.955 225.658 329.966C200.931 326.997 178.565 322.293 159.789 316.278ZM105.462 284.542C108.595 316.45 127.746 345.505 157.823 367.324C162.742 370.892 167.948 374.259 173.412 377.408C164.484 358.519 157.962 337.272 154.44 314.495C130.941 306.348 113.716 296.053 105.462 284.542ZM469.32 284.542C461.066 296.054 443.84 306.348 420.341 314.495C416.819 337.273 410.297 358.519 401.369 377.408C406.833 374.258 412.04 370.892 416.959 367.324C447.036 345.505 466.187 316.45 469.32 284.542ZM287.391 209.496C267.926 209.496 249.191 210.527 231.617 212.431C229.192 232.01 227.864 253.161 227.864 275.25C227.864 292.674 228.69 309.515 230.229 325.461C248.203 327.463 267.413 328.55 287.391 328.55C307.368 328.55 326.578 327.463 344.552 325.461C346.091 309.515 346.919 292.675 346.919 275.25C346.919 253.16 345.589 232.01 343.164 212.431C325.59 210.527 306.855 209.496 287.391 209.496ZM348.273 213.014C350.634 232.487 351.919 253.433 351.919 275.25L351.914 277.671C351.843 293.991 351.051 309.808 349.631 324.868C374.698 321.795 397.209 316.926 415.842 310.742C417.47 299.269 418.328 287.403 418.328 275.25C418.328 258.375 416.677 242.053 413.599 226.571C395.072 220.624 372.884 215.956 348.273 213.014ZM226.508 213.014C201.897 215.956 179.709 220.624 161.182 226.571C158.104 242.053 156.453 258.375 156.453 275.25C156.453 287.403 157.311 299.269 158.939 310.742C177.572 316.926 200.083 321.794 225.15 324.867C223.73 309.807 222.94 293.991 222.869 277.671L222.864 275.25C222.864 253.433 224.147 232.487 226.508 213.014ZM155.737 228.393C139.452 234.068 126.604 240.686 117.886 247.784C111.013 253.379 107.073 258.954 105.635 264.331C105.383 266.507 105.206 268.697 105.105 270.9C105.776 277.134 109.805 283.683 117.886 290.262C126.226 297.053 138.348 303.405 153.642 308.912C152.307 298.759 151.562 288.323 151.464 277.671L151.453 275.25C151.453 259.07 152.94 243.369 155.737 228.393ZM419.044 228.393C421.841 243.369 423.328 259.07 423.328 275.25L423.317 277.671C423.219 288.323 422.474 298.759 421.139 308.912C436.433 303.405 448.555 297.053 456.896 290.262C464.974 283.686 469.004 277.139 469.677 270.907C469.576 268.702 469.399 266.509 469.147 264.331C467.709 258.954 463.769 253.379 456.896 247.784C448.178 240.686 435.329 234.068 419.044 228.393ZM173.417 173.086C167.951 176.236 162.744 179.604 157.823 183.173C132.911 201.246 115.495 224.284 108.467 249.794C117.881 239.396 134.728 230.127 156.868 222.724C160.627 204.943 166.247 188.255 173.417 173.086ZM401.364 173.086C408.534 188.255 414.154 204.942 417.913 222.723C440.053 230.125 456.9 239.395 466.315 249.792C459.287 224.283 441.871 201.245 416.959 183.173C412.038 179.604 406.83 176.237 401.364 173.086ZM242.034 98.5464C177.746 115 127.136 165.612 110.686 229.901C123.451 203.727 146.95 181.234 177.349 165.208C193.373 134.812 215.863 111.312 242.034 98.5464ZM332.746 98.5454C358.917 111.311 381.407 134.811 397.432 165.208C427.828 181.231 451.327 203.721 464.093 229.892C447.64 165.606 397.032 114.997 332.746 98.5454ZM335.022 148.834C340.402 165.921 344.706 185.911 347.624 207.902C371.819 210.728 393.794 215.212 412.412 220.958C408.185 202.097 401.819 184.57 393.725 168.914C376.242 159.875 356.424 152.991 335.022 148.834ZM239.759 148.834C218.357 152.991 198.539 159.875 181.056 168.914C172.962 184.569 166.596 202.096 162.369 220.956C180.987 215.21 202.962 210.728 227.157 207.902C230.075 185.911 234.379 165.921 239.759 148.834ZM287.391 144.311C272.904 144.311 258.825 145.528 245.335 147.82C239.777 164.823 235.306 184.987 232.278 207.332C248.969 205.566 266.652 204.58 284.969 204.5L287.391 204.496C306.571 204.496 325.078 205.489 342.503 207.333C339.475 184.988 335.004 164.823 329.446 147.82C315.956 145.528 301.877 144.311 287.391 144.311ZM304.322 94.3813C315.443 103.141 325.372 120.318 333.246 143.414C353.531 147.115 372.502 153.215 389.553 161.274C386.403 155.808 383.035 150.601 379.466 145.681C359.401 118.022 333.217 99.6013 304.322 94.3813ZM270.452 94.3833C241.56 99.6052 215.378 118.025 195.315 145.681C191.747 150.6 188.38 155.806 185.231 161.27C202.281 153.211 221.252 147.114 241.536 143.413C249.409 120.321 259.333 103.144 270.452 94.3833ZM287.391 92.8608C280.6 92.861 273.394 96.8482 266.152 105.744C259.222 114.257 252.748 126.708 247.163 142.452C259.363 140.516 272.007 139.441 284.969 139.322L287.391 139.311C301.199 139.311 314.66 140.396 327.618 142.453C322.033 126.709 315.561 114.257 308.631 105.744C301.388 96.848 294.182 92.861 287.391 92.8608H287.391Z" fill="url(#paint7_linear_864_13756)"/>
</g>
<mask id="mask1_864_13756" style="mask-type:alpha" maskUnits="userSpaceOnUse" x="100" y="87" width="375" height="376">
<circle cx="287.391" cy="275.249" r="186.388" stroke="#7BCEF2" stroke-width="2"/>
<path d="M287.391 88.8608C324.529 88.8608 358.241 109.609 382.704 143.333C407.168 177.055 422.328 223.692 422.328 275.25C422.328 326.807 407.167 373.444 382.704 407.166C358.241 440.889 324.529 461.637 287.391 461.637C250.253 461.637 216.542 440.889 192.078 407.166C167.615 373.444 152.454 326.807 152.453 275.25C152.453 223.692 167.615 177.055 192.078 143.333C216.542 109.61 250.253 88.8609 287.391 88.8608Z" stroke="#7BCEF2" stroke-width="2"/>
<path d="M287.391 88.8608C295.877 88.8608 304.108 93.8532 311.733 103.218C319.351 112.575 326.256 126.176 332.074 143.071C343.706 176.851 350.918 223.584 350.918 275.25C350.918 326.915 343.706 373.647 332.074 407.427C326.256 424.322 319.351 437.923 311.733 447.28C304.108 456.645 295.877 461.637 287.391 461.637C278.905 461.637 270.674 456.645 263.049 447.28C255.431 437.923 248.526 424.322 242.708 407.427C231.076 373.647 223.864 326.915 223.864 275.25C223.864 223.584 231.076 176.851 242.708 143.071C248.526 126.176 255.431 112.575 263.049 103.218C270.674 93.8532 278.905 88.8608 287.391 88.8608Z" stroke="#7BCEF2" stroke-width="2"/>
<path d="M473.779 275.249C473.779 312.387 453.031 346.099 419.308 370.562C385.586 395.026 338.949 410.187 287.391 410.187C235.833 410.186 189.197 395.025 155.475 370.562C121.751 346.099 101.003 312.387 101.003 275.249C101.003 238.111 121.752 204.4 155.475 179.937C189.197 155.473 235.833 140.312 287.391 140.312C338.949 140.312 385.586 155.473 419.308 179.937C453.031 204.4 473.779 238.111 473.779 275.249Z" stroke="#7BCEF2" stroke-width="2"/>
<path d="M473.779 269.023C473.779 277.509 468.787 285.741 459.422 293.365C450.065 300.983 436.464 307.888 419.569 313.706C385.789 325.338 339.056 332.551 287.391 332.551C235.725 332.551 188.993 325.338 155.213 313.706C138.318 307.888 124.717 300.983 115.36 293.365C105.995 285.741 101.003 277.509 101.003 269.023C101.003 260.538 105.995 252.306 115.36 244.682C124.717 237.064 138.318 230.159 155.213 224.341C188.993 212.708 235.725 205.496 287.391 205.496C339.056 205.496 385.789 212.708 419.569 224.341C436.464 230.159 450.065 237.064 459.422 244.682C468.787 252.306 473.779 260.538 473.779 269.023Z" stroke="#7BCEF2" stroke-width="2"/>
</mask>
<g mask="url(#mask1_864_13756)">
<path d="M298.864 481.782C295.305 481.957 291.724 482.047 288.122 482.047C169.399 482.047 73.1551 385.804 73.1549 267.081C73.1549 238.642 78.6785 211.493 88.7096 186.647L298.864 481.782ZM288.122 52.1143C406.844 52.1145 503.088 148.358 503.088 267.081C503.087 370.651 429.843 457.112 332.327 477.495L430.345 422.77L502.357 281.473L183.333 79.3389C214.335 61.9978 250.074 52.1143 288.122 52.1143Z" fill="url(#paint8_linear_864_13756)"/>
</g>
<path d="M265.511 343.131L380.893 480.298L292.943 492.401H253.407L157.391 343.131H265.511ZM470.454 343.131L415.588 441.569L221.94 239.045H305.854L470.454 343.131Z" fill="url(#paint9_linear_864_13756)" fill-opacity="0.88"/>
<g filter="url(#filter5_i_864_13756)">
<path d="M212.811 333.062L212.693 372.137L156.319 339.589L156.422 300.513L212.811 333.062Z" fill="#7BCEF2"/>
</g>
<path d="M212.811 333.062L212.693 372.137L156.319 339.589L156.422 300.513L212.811 333.062Z" stroke="#2A5162" stroke-width="1.58005" stroke-linejoin="round"/>
<g filter="url(#filter6_i_864_13756)">
<path d="M212.811 333.06L264.352 303.105L264.235 342.181L212.693 372.136L212.811 333.06Z" fill="#2A5162" stroke="#2A5162" stroke-width="1.58005" stroke-linejoin="round"/>
<path d="M212.412 372.622L212.53 332.898L212.662 332.825L264.616 302.634L264.498 342.358L264.366 342.432L212.412 372.622ZM213.075 333.223L212.972 371.665L263.953 342.034L264.056 303.592L213.075 333.223Z" fill="#2A5162" stroke="#2A5162" stroke-width="1.58005" stroke-linejoin="round"/>
</g>
<g filter="url(#filter7_i_864_13756)">
<path d="M156.422 300.513L207.964 270.558L264.352 303.106C264.352 303.106 236.083 332.433 212.811 333.061C187.394 333.748 156.422 300.513 156.422 300.513Z" fill="url(#paint10_linear_864_13756)"/>
</g>
<path d="M156.422 300.513L207.964 270.558L264.352 303.106C264.352 303.106 236.083 332.433 212.811 333.061C187.394 333.748 156.422 300.513 156.422 300.513Z" stroke="#2A5162" stroke-width="1.58005" stroke-linejoin="round"/>
<g filter="url(#filter8_i_864_13756)">
<path d="M268.177 192.847L267.977 265.957L222.864 239.909L223.077 166.799L268.177 192.847Z" fill="#7BCEF2"/>
</g>
<path d="M268.177 192.847L267.977 265.957L222.864 239.909L223.077 166.799L268.177 192.847Z" stroke="#2A5162" stroke-width="1.05293" stroke-linejoin="round"/>
<g filter="url(#filter9_i_864_13756)">
<path d="M268.179 192.847L309.848 168.628L309.634 241.738L267.979 265.957L268.179 192.847Z" fill="#2A5162" stroke="#2A5162" stroke-width="1.05293" stroke-linejoin="round"/>
<path d="M267.724 266.398L267.937 192.7L268.058 192.634L310.1 168.201L309.886 241.899L309.766 241.966L267.724 266.398ZM268.431 192.994L268.231 265.53L309.392 241.605L309.593 169.069L268.431 192.994Z" fill="#2A5162" stroke="#2A5162" stroke-width="1.05293" stroke-linejoin="round"/>
</g>
<g filter="url(#filter10_i_864_13756)">
<path d="M223.075 166.799L264.73 142.594L309.843 168.628L268.175 192.847L223.075 166.799Z" fill="url(#paint11_linear_864_13756)"/>
</g>
<path d="M223.075 166.799L264.73 142.594L309.843 168.628L268.175 192.847L223.075 166.799Z" stroke="#2A5162" stroke-width="1.05293" stroke-linejoin="round"/>
<g filter="url(#filter11_i_864_13756)">
<path d="M365.04 356.3L364.961 368.112L327.394 346.422L327.463 334.61L365.04 356.3Z" fill="#7BCEF2"/>
</g>
<path d="M365.04 356.3L364.961 368.112L327.394 346.422L327.463 334.61L365.04 356.3Z" stroke="#2A5162" stroke-width="1.05293" stroke-linejoin="round"/>
<g filter="url(#filter12_i_864_13756)">
<path d="M365.04 356.299L399.386 336.337L399.387 348.056L365.04 368.018L365.04 356.299Z" fill="#2A5162" stroke="#2A5162" stroke-width="1.05293" stroke-linejoin="round"/>
</g>
<g filter="url(#filter13_i_864_13756)">
<path d="M327.463 334.61L361.809 314.648L399.386 336.338L365.04 356.3L327.463 334.61Z" fill="#7BCEF2"/>
</g>
<path d="M327.463 334.61L361.809 314.648L399.386 336.338L365.04 356.3L327.463 334.61Z" stroke="#2A5162" stroke-width="1.05293" stroke-linejoin="round"/>
<g filter="url(#filter14_i_864_13756)">
<path d="M365.04 318.77L364.961 330.582L327.394 308.892L327.463 297.08L365.04 318.77Z" fill="#7BCEF2"/>
</g>
<path d="M365.04 318.77L364.961 330.582L327.394 308.892L327.463 297.08L365.04 318.77Z" stroke="#2A5162" stroke-width="1.05293" stroke-linejoin="round"/>
<g filter="url(#filter15_i_864_13756)">
<path d="M365.04 318.769L399.386 298.807L399.387 310.526L365.04 330.488L365.04 318.769Z" fill="#2A5162" stroke="#2A5162" stroke-width="1.05293" stroke-linejoin="round"/>
</g>
<g filter="url(#filter16_i_864_13756)">
<path d="M327.463 297.08L361.809 277.118L399.386 298.808L365.04 318.77L327.463 297.08Z" fill="#7BCEF2"/>
</g>
<path d="M327.463 297.08L361.809 277.118L399.386 298.808L365.04 318.77L327.463 297.08Z" stroke="#2A5162" stroke-width="1.05293" stroke-linejoin="round"/>
<g filter="url(#filter17_i_864_13756)">
<path d="M365.04 301.82L364.961 313.632L327.394 291.942L327.463 280.13L365.04 301.82Z" fill="#7BCEF2"/>
</g>
<path d="M365.04 301.82L364.961 313.632L327.394 291.942L327.463 280.13L365.04 301.82Z" stroke="#2A5162" stroke-width="1.05293" stroke-linejoin="round"/>
<g filter="url(#filter18_i_864_13756)">
<path d="M365.04 301.819L399.386 281.857L399.387 293.576L365.04 313.538L365.04 301.819Z" fill="#2A5162" stroke="#2A5162" stroke-width="1.05293" stroke-linejoin="round"/>
</g>
<g filter="url(#filter19_i_864_13756)">
<path d="M327.463 280.13L361.809 260.168L399.386 281.858L365.04 301.82L327.463 280.13Z" fill="url(#paint12_linear_864_13756)"/>
</g>
<path d="M327.463 280.13L361.809 260.168L399.386 281.858L365.04 301.82L327.463 280.13Z" stroke="#2A5162" stroke-width="1.05293" stroke-linejoin="round"/>
<g filter="url(#filter20_d_864_13756)">
<path d="M52.1872 148.676H54.2951V156.278C54.2951 157.111 54.0982 157.844 53.7042 158.477C53.3141 159.109 52.7648 159.604 52.0565 159.96C51.3482 160.312 50.5205 160.488 49.5735 160.488C48.6228 160.488 47.7932 160.312 47.0849 159.96C46.3766 159.604 45.8273 159.109 45.4372 158.477C45.047 157.844 44.852 157.111 44.852 156.278V148.676H46.9599V156.102C46.9599 156.587 47.066 157.018 47.2781 157.397C47.494 157.776 47.797 158.073 48.1872 158.289C48.5773 158.501 49.0395 158.607 49.5735 158.607C50.1076 158.607 50.5698 158.501 50.9599 158.289C51.3538 158.073 51.6569 157.776 51.869 157.397C52.0811 157.018 52.1872 156.587 52.1872 156.102V148.676ZM56.2663 160.312V148.676H60.63C61.5239 148.676 62.2739 148.831 62.88 149.142C63.4898 149.452 63.95 149.888 64.2606 150.448C64.575 151.005 64.7322 151.655 64.7322 152.397C64.7322 153.143 64.5731 153.791 64.255 154.34C63.9406 154.886 63.4766 155.308 62.8629 155.607C62.2493 155.903 61.4955 156.051 60.6016 156.051H57.4936V154.301H60.3175C60.8402 154.301 61.2682 154.229 61.6016 154.085C61.9349 153.937 62.1811 153.723 62.3402 153.443C62.5031 153.159 62.5845 152.81 62.5845 152.397C62.5845 151.984 62.5031 151.632 62.3402 151.34C62.1773 151.045 61.9292 150.821 61.5959 150.67C61.2625 150.515 60.8326 150.437 60.3061 150.437H58.3743V160.312H56.2663ZM62.2777 155.039L65.1584 160.312H62.8061L59.9766 155.039H62.2777ZM66.3526 160.312V148.676H68.4605V158.545H73.5855V160.312H66.3526ZM78.7438 160.312V148.676H86.1984V150.443H80.8518V153.602H85.687V155.369H80.8518V160.312H78.7438ZM92.7235 156.642V151.585H94.7804V160.312H92.786V158.761H92.6951C92.4982 159.25 92.1743 159.649 91.7235 159.96C91.2766 160.27 90.7254 160.426 90.0701 160.426C89.4982 160.426 88.9925 160.299 88.5531 160.045C88.1175 159.787 87.7766 159.414 87.5304 158.926C87.2841 158.433 87.161 157.839 87.161 157.142V151.585H89.2179V156.823C89.2179 157.376 89.3694 157.816 89.6724 158.142C89.9754 158.467 90.3732 158.63 90.8656 158.63C91.1686 158.63 91.4622 158.556 91.7463 158.409C92.0304 158.261 92.2633 158.041 92.4451 157.75C92.6307 157.454 92.7235 157.085 92.7235 156.642ZM96.4618 160.312V159.005L100.962 153.363V153.289H96.6095V151.585H103.479V152.988L99.1947 158.534V158.607H103.627V160.312H96.4618ZM105.126 160.312V159.005L109.626 153.363V153.289H105.274V151.585H112.143V152.988L107.859 158.534V158.607H112.291V160.312H105.126ZM117.518 160.482C116.643 160.482 115.887 160.301 115.251 159.937C114.618 159.57 114.131 159.051 113.791 158.38C113.45 157.706 113.279 156.912 113.279 156C113.279 155.102 113.45 154.314 113.791 153.636C114.135 152.954 114.616 152.424 115.234 152.045C115.851 151.662 116.577 151.471 117.41 151.471C117.948 151.471 118.455 151.558 118.933 151.732C119.414 151.903 119.838 152.168 120.205 152.528C120.577 152.888 120.868 153.346 121.08 153.903C121.292 154.456 121.398 155.115 121.398 155.88V156.511H114.245V155.125H119.427C119.423 154.731 119.338 154.38 119.171 154.073C119.005 153.763 118.772 153.518 118.472 153.34C118.177 153.162 117.832 153.073 117.438 153.073C117.018 153.073 116.648 153.176 116.33 153.38C116.012 153.581 115.764 153.846 115.586 154.176C115.412 154.501 115.323 154.859 115.319 155.25V156.46C115.319 156.967 115.412 157.403 115.597 157.767C115.783 158.126 116.042 158.403 116.376 158.596C116.709 158.785 117.099 158.88 117.546 158.88C117.845 158.88 118.116 158.839 118.359 158.755C118.601 158.668 118.811 158.541 118.989 158.375C119.167 158.208 119.302 158.001 119.393 157.755L121.313 157.971C121.192 158.479 120.961 158.922 120.62 159.301C120.283 159.676 119.851 159.967 119.325 160.176C118.798 160.38 118.196 160.482 117.518 160.482ZM122.819 160.312V151.585H124.813V153.039H124.904C125.063 152.535 125.336 152.147 125.722 151.875C126.112 151.598 126.557 151.46 127.057 151.46C127.171 151.46 127.298 151.465 127.438 151.477C127.582 151.484 127.701 151.498 127.796 151.517V153.409C127.709 153.378 127.57 153.352 127.381 153.329C127.195 153.303 127.016 153.289 126.841 153.289C126.466 153.289 126.129 153.371 125.83 153.534C125.534 153.693 125.301 153.914 125.131 154.198C124.961 154.482 124.875 154.81 124.875 155.181V160.312H122.819Z" fill="white" fill-opacity="0.75" shape-rendering="crispEdges"/>
</g>
<defs>
<filter id="filter0_df_864_13756" x="0.804222" y="0.41201" width="563.8" height="523.8" filterUnits="userSpaceOnUse" color-interpolation-filters="sRGB">
<feFlood flood-opacity="0" result="BackgroundImageFix"/>
<feColorMatrix in="SourceAlpha" type="matrix" values="0 0 0 0 0 0 0 0 0 0 0 0 0 0 0 0 0 0 127 0" result="hardAlpha"/>
<feOffset dy="2"/>
<feGaussianBlur stdDeviation="20.45"/>
<feComposite in2="hardAlpha" operator="out"/>
<feColorMatrix type="matrix" values="0 0 0 0 0.482353 0 0 0 0 0.807843 0 0 0 0 0.94902 0 0 0 1 0"/>
<feBlend mode="normal" in2="BackgroundImageFix" result="effect1_dropShadow_864_13756"/>
<feBlend mode="normal" in="SourceGraphic" in2="effect1_dropShadow_864_13756" result="shape"/>
<feGaussianBlur stdDeviation="7.5" result="effect2_foregroundBlur_864_13756"/>
</filter>
<filter id="filter1_d_864_13756" x="26.6042" y="24.212" width="118.2" height="120.2" filterUnits="userSpaceOnUse" color-interpolation-filters="sRGB">
<feFlood flood-opacity="0" result="BackgroundImageFix"/>
<feColorMatrix in="SourceAlpha" type="matrix" values="0 0 0 0 0 0 0 0 0 0 0 0 0 0 0 0 0 0 127 0" result="hardAlpha"/>
<feOffset/>
<feGaussianBlur stdDeviation="6.05"/>
<feComposite in2="hardAlpha" operator="out"/>
<feColorMatrix type="matrix" values="0 0 0 0 0.482353 0 0 0 0 0.807843 0 0 0 0 0.94902 0 0 0 1 0"/>
<feBlend mode="normal" in2="BackgroundImageFix" result="effect1_dropShadow_864_13756"/>
<feBlend mode="normal" in="SourceGraphic" in2="effect1_dropShadow_864_13756" result="shape"/>
</filter>
<filter id="filter2_i_864_13756" x="366.973" y="174.388" width="34.3784" height="73.978" filterUnits="userSpaceOnUse" color-interpolation-filters="sRGB">
<feFlood flood-opacity="0" result="BackgroundImageFix"/>
<feBlend mode="normal" in="SourceGraphic" in2="BackgroundImageFix" result="shape"/>
<feColorMatrix in="SourceAlpha" type="matrix" values="0 0 0 0 0 0 0 0 0 0 0 0 0 0 0 0 0 0 127 0" result="hardAlpha"/>
<feOffset/>
<feGaussianBlur stdDeviation="5"/>
<feComposite in2="hardAlpha" operator="arithmetic" k2="-1" k3="1"/>
<feColorMatrix type="matrix" values="0 0 0 0 0.545098 0 0 0 0 0.74902 0 0 0 0 1 0 0 0 0.64 0"/>
<feBlend mode="normal" in2="shape" result="effect1_innerShadow_864_13756"/>
</filter>
<filter id="filter3_i_864_13756" x="399.965" y="175.419" width="32.2183" height="73.271" filterUnits="userSpaceOnUse" color-interpolation-filters="sRGB">
<feFlood flood-opacity="0" result="BackgroundImageFix"/>
<feBlend mode="normal" in="SourceGraphic" in2="BackgroundImageFix" result="shape"/>
<feColorMatrix in="SourceAlpha" type="matrix" values="0 0 0 0 0 0 0 0 0 0 0 0 0 0 0 0 0 0 127 0" result="hardAlpha"/>
<feOffset/>
<feGaussianBlur stdDeviation="5"/>
<feComposite in2="hardAlpha" operator="arithmetic" k2="-1" k3="1"/>
<feColorMatrix type="matrix" values="0 0 0 0 0.545098 0 0 0 0 0.74902 0 0 0 0 1 0 0 0 0.64 0"/>
<feBlend mode="normal" in2="shape" result="effect1_innerShadow_864_13756"/>
</filter>
<filter id="filter4_i_864_13756" x="367.129" y="156.586" width="64.8663" height="38.0112" filterUnits="userSpaceOnUse" color-interpolation-filters="sRGB">
<feFlood flood-opacity="0" result="BackgroundImageFix"/>
<feBlend mode="normal" in="SourceGraphic" in2="BackgroundImageFix" result="shape"/>
<feColorMatrix in="SourceAlpha" type="matrix" values="0 0 0 0 0 0 0 0 0 0 0 0 0 0 0 0 0 0 127 0" result="hardAlpha"/>
<feOffset/>
<feGaussianBlur stdDeviation="5"/>
<feComposite in2="hardAlpha" operator="arithmetic" k2="-1" k3="1"/>
<feColorMatrix type="matrix" values="0 0 0 0 0.545098 0 0 0 0 0.74902 0 0 0 0 1 0 0 0 0.64 0"/>
<feBlend mode="normal" in2="shape" result="effect1_innerShadow_864_13756"/>
</filter>
<filter id="filter5_i_864_13756" x="155.529" y="299.723" width="58.072" height="73.2041" filterUnits="userSpaceOnUse" color-interpolation-filters="sRGB">
<feFlood flood-opacity="0" result="BackgroundImageFix"/>
<feBlend mode="normal" in="SourceGraphic" in2="BackgroundImageFix" result="shape"/>
<feColorMatrix in="SourceAlpha" type="matrix" values="0 0 0 0 0 0 0 0 0 0 0 0 0 0 0 0 0 0 127 0" result="hardAlpha"/>
<feOffset/>
<feGaussianBlur stdDeviation="6.00246"/>
<feComposite in2="hardAlpha" operator="arithmetic" k2="-1" k3="1"/>
<feColorMatrix type="matrix" values="0 0 0 0 0.545098 0 0 0 0 0.74902 0 0 0 0 1 0 0 0 0.64 0"/>
<feBlend mode="normal" in2="shape" result="effect1_innerShadow_864_13756"/>
</filter>
<filter id="filter6_i_864_13756" x="211.622" y="301.844" width="53.7843" height="71.5688" filterUnits="userSpaceOnUse" color-interpolation-filters="sRGB">
<feFlood flood-opacity="0" result="BackgroundImageFix"/>
<feBlend mode="normal" in="SourceGraphic" in2="BackgroundImageFix" result="shape"/>
<feColorMatrix in="SourceAlpha" type="matrix" values="0 0 0 0 0 0 0 0 0 0 0 0 0 0 0 0 0 0 127 0" result="hardAlpha"/>
<feOffset/>
<feGaussianBlur stdDeviation="6.00246"/>
<feComposite in2="hardAlpha" operator="arithmetic" k2="-1" k3="1"/>
<feColorMatrix type="matrix" values="0 0 0 0 0.545098 0 0 0 0 0.74902 0 0 0 0 1 0 0 0 0.64 0"/>
<feBlend mode="normal" in2="shape" result="effect1_innerShadow_864_13756"/>
</filter>
<filter id="filter7_i_864_13756" x="155.632" y="269.768" width="109.51" height="64.0942" filterUnits="userSpaceOnUse" color-interpolation-filters="sRGB">
<feFlood flood-opacity="0" result="BackgroundImageFix"/>
<feBlend mode="normal" in="SourceGraphic" in2="BackgroundImageFix" result="shape"/>
<feColorMatrix in="SourceAlpha" type="matrix" values="0 0 0 0 0 0 0 0 0 0 0 0 0 0 0 0 0 0 127 0" result="hardAlpha"/>
<feOffset/>
<feGaussianBlur stdDeviation="6.00246"/>
<feComposite in2="hardAlpha" operator="arithmetic" k2="-1" k3="1"/>
<feColorMatrix type="matrix" values="0 0 0 0 0.545098 0 0 0 0 0.74902 0 0 0 0 1 0 0 0 0.64 0"/>
<feBlend mode="normal" in2="shape" result="effect1_innerShadow_864_13756"/>
</filter>
<filter id="filter8_i_864_13756" x="222.337" y="166.272" width="46.3663" height="100.211" filterUnits="userSpaceOnUse" color-interpolation-filters="sRGB">
<feFlood flood-opacity="0" result="BackgroundImageFix"/>
<feBlend mode="normal" in="SourceGraphic" in2="BackgroundImageFix" result="shape"/>
<feColorMatrix in="SourceAlpha" type="matrix" values="0 0 0 0 0 0 0 0 0 0 0 0 0 0 0 0 0 0 127 0" result="hardAlpha"/>
<feOffset/>
<feGaussianBlur stdDeviation="5"/>
<feComposite in2="hardAlpha" operator="arithmetic" k2="-1" k3="1"/>
<feColorMatrix type="matrix" values="0 0 0 0 0.545098 0 0 0 0 0.74902 0 0 0 0 1 0 0 0 0.64 0"/>
<feBlend mode="normal" in2="shape" result="effect1_innerShadow_864_13756"/>
</filter>
<filter id="filter9_i_864_13756" x="267.197" y="167.675" width="43.4291" height="99.2495" filterUnits="userSpaceOnUse" color-interpolation-filters="sRGB">
<feFlood flood-opacity="0" result="BackgroundImageFix"/>
<feBlend mode="normal" in="SourceGraphic" in2="BackgroundImageFix" result="shape"/>
<feColorMatrix in="SourceAlpha" type="matrix" values="0 0 0 0 0 0 0 0 0 0 0 0 0 0 0 0 0 0 127 0" result="hardAlpha"/>
<feOffset/>
<feGaussianBlur stdDeviation="5"/>
<feComposite in2="hardAlpha" operator="arithmetic" k2="-1" k3="1"/>
<feColorMatrix type="matrix" values="0 0 0 0 0.545098 0 0 0 0 0.74902 0 0 0 0 1 0 0 0 0.64 0"/>
<feBlend mode="normal" in2="shape" result="effect1_innerShadow_864_13756"/>
</filter>
<filter id="filter10_i_864_13756" x="222.549" y="142.067" width="87.8213" height="51.3062" filterUnits="userSpaceOnUse" color-interpolation-filters="sRGB">
<feFlood flood-opacity="0" result="BackgroundImageFix"/>
<feBlend mode="normal" in="SourceGraphic" in2="BackgroundImageFix" result="shape"/>
<feColorMatrix in="SourceAlpha" type="matrix" values="0 0 0 0 0 0 0 0 0 0 0 0 0 0 0 0 0 0 127 0" result="hardAlpha"/>
<feOffset/>
<feGaussianBlur stdDeviation="5"/>
<feComposite in2="hardAlpha" operator="arithmetic" k2="-1" k3="1"/>
<feColorMatrix type="matrix" values="0 0 0 0 0.545098 0 0 0 0 0.74902 0 0 0 0 1 0 0 0 0.64 0"/>
<feBlend mode="normal" in2="shape" result="effect1_innerShadow_864_13756"/>
</filter>
<filter id="filter11_i_864_13756" x="326.867" y="334.083" width="38.6989" height="34.5547" filterUnits="userSpaceOnUse" color-interpolation-filters="sRGB">
<feFlood flood-opacity="0" result="BackgroundImageFix"/>
<feBlend mode="normal" in="SourceGraphic" in2="BackgroundImageFix" result="shape"/>
<feColorMatrix in="SourceAlpha" type="matrix" values="0 0 0 0 0 0 0 0 0 0 0 0 0 0 0 0 0 0 127 0" result="hardAlpha"/>
<feOffset/>
<feGaussianBlur stdDeviation="4"/>
<feComposite in2="hardAlpha" operator="arithmetic" k2="-1" k3="1"/>
<feColorMatrix type="matrix" values="0 0 0 0 0.545098 0 0 0 0 0.74902 0 0 0 0 1 0 0 0 0.64 0"/>
<feBlend mode="normal" in2="shape" result="effect1_innerShadow_864_13756"/>
</filter>
<filter id="filter12_i_864_13756" x="364.513" y="335.811" width="35.3997" height="32.7339" filterUnits="userSpaceOnUse" color-interpolation-filters="sRGB">
<feFlood flood-opacity="0" result="BackgroundImageFix"/>
<feBlend mode="normal" in="SourceGraphic" in2="BackgroundImageFix" result="shape"/>
<feColorMatrix in="SourceAlpha" type="matrix" values="0 0 0 0 0 0 0 0 0 0 0 0 0 0 0 0 0 0 127 0" result="hardAlpha"/>
<feOffset/>
<feGaussianBlur stdDeviation="4"/>
<feComposite in2="hardAlpha" operator="arithmetic" k2="-1" k3="1"/>
<feColorMatrix type="matrix" values="0 0 0 0 0.545098 0 0 0 0 0.74902 0 0 0 0 1 0 0 0 0.64 0"/>
<feBlend mode="normal" in2="shape" result="effect1_innerShadow_864_13756"/>
</filter>
<filter id="filter13_i_864_13756" x="326.936" y="314.122" width="72.9768" height="42.7046" filterUnits="userSpaceOnUse" color-interpolation-filters="sRGB">
<feFlood flood-opacity="0" result="BackgroundImageFix"/>
<feBlend mode="normal" in="SourceGraphic" in2="BackgroundImageFix" result="shape"/>
<feColorMatrix in="SourceAlpha" type="matrix" values="0 0 0 0 0 0 0 0 0 0 0 0 0 0 0 0 0 0 127 0" result="hardAlpha"/>
<feOffset/>
<feGaussianBlur stdDeviation="4"/>
<feComposite in2="hardAlpha" operator="arithmetic" k2="-1" k3="1"/>
<feColorMatrix type="matrix" values="0 0 0 0 0.545098 0 0 0 0 0.74902 0 0 0 0 1 0 0 0 0.64 0"/>
<feBlend mode="normal" in2="shape" result="effect1_innerShadow_864_13756"/>
</filter>
<filter id="filter14_i_864_13756" x="326.867" y="296.554" width="38.6989" height="34.5547" filterUnits="userSpaceOnUse" color-interpolation-filters="sRGB">
<feFlood flood-opacity="0" result="BackgroundImageFix"/>
<feBlend mode="normal" in="SourceGraphic" in2="BackgroundImageFix" result="shape"/>
<feColorMatrix in="SourceAlpha" type="matrix" values="0 0 0 0 0 0 0 0 0 0 0 0 0 0 0 0 0 0 127 0" result="hardAlpha"/>
<feOffset/>
<feGaussianBlur stdDeviation="4"/>
<feComposite in2="hardAlpha" operator="arithmetic" k2="-1" k3="1"/>
<feColorMatrix type="matrix" values="0 0 0 0 0.545098 0 0 0 0 0.74902 0 0 0 0 1 0 0 0 0.64 0"/>
<feBlend mode="normal" in2="shape" result="effect1_innerShadow_864_13756"/>
</filter>
<filter id="filter15_i_864_13756" x="364.513" y="298.281" width="35.3997" height="32.7339" filterUnits="userSpaceOnUse" color-interpolation-filters="sRGB">
<feFlood flood-opacity="0" result="BackgroundImageFix"/>
<feBlend mode="normal" in="SourceGraphic" in2="BackgroundImageFix" result="shape"/>
<feColorMatrix in="SourceAlpha" type="matrix" values="0 0 0 0 0 0 0 0 0 0 0 0 0 0 0 0 0 0 127 0" result="hardAlpha"/>
<feOffset/>
<feGaussianBlur stdDeviation="4"/>
<feComposite in2="hardAlpha" operator="arithmetic" k2="-1" k3="1"/>
<feColorMatrix type="matrix" values="0 0 0 0 0.545098 0 0 0 0 0.74902 0 0 0 0 1 0 0 0 0.64 0"/>
<feBlend mode="normal" in2="shape" result="effect1_innerShadow_864_13756"/>
</filter>
<filter id="filter16_i_864_13756" x="326.936" y="276.592" width="72.9768" height="42.7046" filterUnits="userSpaceOnUse" color-interpolation-filters="sRGB">
<feFlood flood-opacity="0" result="BackgroundImageFix"/>
<feBlend mode="normal" in="SourceGraphic" in2="BackgroundImageFix" result="shape"/>
<feColorMatrix in="SourceAlpha" type="matrix" values="0 0 0 0 0 0 0 0 0 0 0 0 0 0 0 0 0 0 127 0" result="hardAlpha"/>
<feOffset/>
<feGaussianBlur stdDeviation="4"/>
<feComposite in2="hardAlpha" operator="arithmetic" k2="-1" k3="1"/>
<feColorMatrix type="matrix" values="0 0 0 0 0.545098 0 0 0 0 0.74902 0 0 0 0 1 0 0 0 0.64 0"/>
<feBlend mode="normal" in2="shape" result="effect1_innerShadow_864_13756"/>
</filter>
<filter id="filter17_i_864_13756" x="326.867" y="279.604" width="38.6989" height="34.5547" filterUnits="userSpaceOnUse" color-interpolation-filters="sRGB">
<feFlood flood-opacity="0" result="BackgroundImageFix"/>
<feBlend mode="normal" in="SourceGraphic" in2="BackgroundImageFix" result="shape"/>
<feColorMatrix in="SourceAlpha" type="matrix" values="0 0 0 0 0 0 0 0 0 0 0 0 0 0 0 0 0 0 127 0" result="hardAlpha"/>
<feOffset/>
<feGaussianBlur stdDeviation="4"/>
<feComposite in2="hardAlpha" operator="arithmetic" k2="-1" k3="1"/>
<feColorMatrix type="matrix" values="0 0 0 0 0.545098 0 0 0 0 0.74902 0 0 0 0 1 0 0 0 0.64 0"/>
<feBlend mode="normal" in2="shape" result="effect1_innerShadow_864_13756"/>
</filter>
<filter id="filter18_i_864_13756" x="364.513" y="281.331" width="35.3997" height="32.7339" filterUnits="userSpaceOnUse" color-interpolation-filters="sRGB">
<feFlood flood-opacity="0" result="BackgroundImageFix"/>
<feBlend mode="normal" in="SourceGraphic" in2="BackgroundImageFix" result="shape"/>
<feColorMatrix in="SourceAlpha" type="matrix" values="0 0 0 0 0 0 0 0 0 0 0 0 0 0 0 0 0 0 127 0" result="hardAlpha"/>
<feOffset/>
<feGaussianBlur stdDeviation="4"/>
<feComposite in2="hardAlpha" operator="arithmetic" k2="-1" k3="1"/>
<feColorMatrix type="matrix" values="0 0 0 0 0.545098 0 0 0 0 0.74902 0 0 0 0 1 0 0 0 0.64 0"/>
<feBlend mode="normal" in2="shape" result="effect1_innerShadow_864_13756"/>
</filter>
<filter id="filter19_i_864_13756" x="326.936" y="259.642" width="72.9768" height="42.7046" filterUnits="userSpaceOnUse" color-interpolation-filters="sRGB">
<feFlood flood-opacity="0" result="BackgroundImageFix"/>
<feBlend mode="normal" in="SourceGraphic" in2="BackgroundImageFix" result="shape"/>
<feColorMatrix in="SourceAlpha" type="matrix" values="0 0 0 0 0 0 0 0 0 0 0 0 0 0 0 0 0 0 127 0" result="hardAlpha"/>
<feOffset/>
<feGaussianBlur stdDeviation="4"/>
<feComposite in2="hardAlpha" operator="arithmetic" k2="-1" k3="1"/>
<feColorMatrix type="matrix" values="0 0 0 0 0.545098 0 0 0 0 0.74902 0 0 0 0 1 0 0 0 0.64 0"/>
<feBlend mode="normal" in2="shape" result="effect1_innerShadow_864_13756"/>
</filter>
<filter id="filter20_d_864_13756" x="40.2519" y="146.076" width="92.1438" height="21.0125" filterUnits="userSpaceOnUse" color-interpolation-filters="sRGB">
<feFlood flood-opacity="0" result="BackgroundImageFix"/>
<feColorMatrix in="SourceAlpha" type="matrix" values="0 0 0 0 0 0 0 0 0 0 0 0 0 0 0 0 0 0 127 0" result="hardAlpha"/>
<feOffset dy="2"/>
<feGaussianBlur stdDeviation="2.3"/>
<feComposite in2="hardAlpha" operator="out"/>
<feColorMatrix type="matrix" values="0 0 0 0 0 0 0 0 0 0 0 0 0 0 0 0 0 0 0.4 0"/>
<feBlend mode="normal" in2="BackgroundImageFix" result="effect1_dropShadow_864_13756"/>
<feBlend mode="normal" in="SourceGraphic" in2="effect1_dropShadow_864_13756" result="shape"/>
</filter>
<linearGradient id="paint0_linear_864_13756" x1="104.031" y1="107.461" x2="381.291" y2="359.649" gradientUnits="userSpaceOnUse">
<stop stop-color="#7BCEF2"/>
<stop offset="1" stop-color="#7BCEF2" stop-opacity="0"/>
</linearGradient>
<linearGradient id="paint1_linear_864_13756" x1="168.172" y1="174.987" x2="418.961" y2="414.429" gradientUnits="userSpaceOnUse">
<stop stop-color="#7BCEF2"/>
<stop offset="1" stop-color="#4497FA"/>
</linearGradient>
<linearGradient id="paint2_linear_864_13756" x1="159.715" y1="146.553" x2="416.864" y2="417.046" gradientUnits="userSpaceOnUse">
<stop stop-color="#FD9898"/>
<stop offset="1" stop-color="#FD9898" stop-opacity="0.18"/>
</linearGradient>
<linearGradient id="paint3_linear_864_13756" x1="194.77" y1="146.553" x2="443.115" y2="336.058" gradientUnits="userSpaceOnUse">
<stop stop-color="#FD9898"/>
<stop offset="1" stop-color="#FD9898" stop-opacity="0.18"/>
</linearGradient>
<linearGradient id="paint4_linear_864_13756" x1="243.425" y1="146.553" x2="408.318" y2="206.281" gradientUnits="userSpaceOnUse">
<stop stop-color="#FD9898"/>
<stop offset="1" stop-color="#FD9898" stop-opacity="0.18"/>
</linearGradient>
<linearGradient id="paint5_linear_864_13756" x1="416.087" y1="182.628" x2="226.582" y2="430.973" gradientUnits="userSpaceOnUse">
<stop stop-color="#FD9898"/>
<stop offset="1" stop-color="#FD9898" stop-opacity="0.18"/>
</linearGradient>
<linearGradient id="paint6_linear_864_13756" x1="416.087" y1="225.058" x2="356.36" y2="389.951" gradientUnits="userSpaceOnUse">
<stop stop-color="#FD9898"/>
<stop offset="1" stop-color="#FD9898" stop-opacity="0.18"/>
</linearGradient>
<linearGradient id="paint7_linear_864_13756" x1="159.715" y1="146.553" x2="370.783" y2="352.919" gradientUnits="userSpaceOnUse">
<stop stop-color="#FD9898"/>
<stop offset="1" stop-color="#FD9898" stop-opacity="0.18"/>
</linearGradient>
<linearGradient id="paint8_linear_864_13756" x1="155.746" y1="154.295" x2="423.225" y2="402.754" gradientUnits="userSpaceOnUse">
<stop stop-color="#7BCEF2"/>
<stop offset="1" stop-color="#4497FA"/>
</linearGradient>
<linearGradient id="paint9_linear_864_13756" x1="256.667" y1="259.016" x2="387.29" y2="414.62" gradientUnits="userSpaceOnUse">
<stop/>
<stop offset="1" stop-opacity="0"/>
</linearGradient>
<linearGradient id="paint10_linear_864_13756" x1="210.387" y1="270.558" x2="210.387" y2="333.072" gradientUnits="userSpaceOnUse">
<stop stop-color="#7BCEF2"/>
<stop offset="1" stop-color="white"/>
</linearGradient>
<linearGradient id="paint11_linear_864_13756" x1="266.459" y1="142.594" x2="266.459" y2="192.847" gradientUnits="userSpaceOnUse">
<stop stop-color="#7BCEF2"/>
<stop offset="1" stop-color="white"/>
</linearGradient>
<linearGradient id="paint12_linear_864_13756" x1="363.424" y1="260.168" x2="363.424" y2="301.82" gradientUnits="userSpaceOnUse">
<stop stop-color="#7BCEF2"/>
<stop offset="1" stop-color="white"/>
</linearGradient>
</defs>
</svg>
